<svg xmlns="http://www.w3.org/2000/svg" xmlns:xlink="http://www.w3.org/1999/xlink" width="268" zoomAndPan="magnify" viewBox="0 0 200.87999 221.249992" height="295" preserveAspectRatio="xMidYMid meet" version="1.0"><defs><g/><clipPath id="ceefcdabfd"><path d="M 0.28125 0 L 200.480469 0 L 200.480469 220.503906 L 0.28125 220.503906 Z M 0.28125 0 " clip-rule="nonzero"/></clipPath><clipPath id="b42be112dd"><path d="M 116 93.394531 L 137.941406 93.394531 L 137.941406 113.816406 L 116 113.816406 Z M 116 93.394531 " clip-rule="nonzero"/></clipPath></defs><g clip-path="url(#ceefcdabfd)"><path fill="#ffffff" d="M 0.28125 0 L 200.601562 0 L 200.601562 220.503906 L 0.28125 220.503906 Z M 0.28125 0 " fill-opacity="1" fill-rule="nonzero"/></g><path fill="#0d42ff" d="M 95.425781 131.773438 C 84.882812 117.296875 98.753906 106.472656 112.527344 103.707031 C 112.527344 103.707031 117.585938 93.539062 129.816406 92.414062 C 138.296875 91.667969 147.339844 89.886719 149.074219 85.996094 C 150.105469 87.121094 148.746094 90.496094 149.308594 91.152344 C 164.863281 75.453125 149.777344 36.941406 121.289062 35.675781 C 50.164062 32.488281 11.933594 110.03125 62.207031 155.292969 C 94.300781 184.15625 141.625 185.09375 175.6875 158.152344 C 149.214844 182.796875 110.277344 189.683594 75.886719 174.410156 C 36.15625 156.699219 20.085938 111.25 37.046875 75.21875 C 58.785156 28.976562 124.054688 11.59375 168.519531 44.015625 C 189.882812 59.570312 200.191406 81.171875 199.816406 105.722656 C 199.816406 117.859375 196.582031 129.335938 190.820312 139.457031 C 189.085938 139.175781 177.140625 137.019531 169.640625 132.195312 C 170.578125 134.304688 170.34375 137.769531 175.6875 138.660156 C 171.890625 139.785156 161.394531 139.082031 147.621094 130.695312 C 135.15625 123.105469 104.5625 124.746094 98.847656 125.121094 C 99.082031 124.511719 99.597656 123.667969 99.875 123.152344 C 97.113281 124.042969 95.519531 130.835938 95.425781 131.773438 " fill-opacity="1" fill-rule="evenodd"/><path fill="#f7941d" d="M 120.789062 108.207031 C 121.363281 107.757812 121.976562 107.351562 122.613281 106.976562 C 122.976562 107.691406 123.53125 108.273438 124.230469 108.660156 C 124.933594 109.046875 125.726562 109.210938 126.523438 109.128906 C 126.902344 109.089844 127.277344 108.992188 127.632812 108.84375 C 129.640625 108.003906 130.597656 105.664062 129.765625 103.632812 C 129.75 103.601562 129.734375 103.5625 129.71875 103.527344 L 129.703125 103.492188 C 130.773438 102.949219 131.789062 102.371094 132.742188 101.703125 C 132.75 102.132812 132.746094 102.582031 132.726562 103.042969 C 132.644531 105.09375 132.214844 107.761719 130.660156 108.816406 C 129.953125 109.296875 128.824219 109.632812 127.296875 109.820312 C 126.019531 109.976562 124.480469 110.019531 122.726562 109.953125 C 121.394531 109.90625 120.136719 109.796875 119.148438 109.691406 C 119.589844 109.195312 120.121094 108.722656 120.789062 108.207031 Z M 120.789062 108.207031 " fill-opacity="1" fill-rule="nonzero"/><path fill="#fbb040" d="M 129.765625 103.632812 C 130.597656 105.664062 129.640625 108.003906 127.632812 108.84375 C 127.277344 108.992188 126.902344 109.089844 126.523438 109.128906 C 125.726562 109.210938 124.933594 109.046875 124.230469 108.660156 C 123.53125 108.273438 122.976562 107.691406 122.613281 106.976562 C 122.945312 106.78125 123.28125 106.59375 123.621094 106.410156 C 124.265625 107.734375 125.824219 108.339844 127.191406 107.769531 C 128.617188 107.171875 129.289062 105.519531 128.699219 104.082031 C 128.691406 104.054688 128.679688 104.027344 128.667969 104.003906 C 129.019531 103.835938 129.363281 103.664062 129.703125 103.492188 L 129.71875 103.527344 C 129.734375 103.5625 129.75 103.601562 129.765625 103.632812 Z M 129.765625 103.632812 " fill-opacity="1" fill-rule="nonzero"/><g clip-path="url(#b42be112dd)"><path fill="#000000" d="M 116.738281 109.589844 C 117.488281 108.507812 118.449219 107.511719 119.589844 106.625 C 121.597656 105.070312 123.902344 104.015625 126.128906 102.992188 L 126.421875 102.859375 C 128.761719 101.785156 130.84375 100.777344 132.589844 99.328125 C 132.640625 99.285156 132.691406 99.242188 132.742188 99.199219 C 133.003906 98.980469 133.304688 98.699219 133.621094 98.371094 C 134.683594 97.253906 135.890625 95.546875 136.085938 93.398438 C 136.085938 93.398438 137.445312 96.101562 135.667969 99.042969 C 135.25 99.550781 134.785156 100.03125 134.277344 100.488281 L 134.324219 101.253906 C 135.449219 100.398438 137.34375 98.683594 137.164062 96.992188 C 137.164062 96.992188 137.941406 100.300781 134.234375 104.226562 C 134.132812 105.261719 133.953125 106.183594 133.691406 106.984375 C 133.226562 108.433594 132.503906 109.496094 131.539062 110.148438 C 131.257812 110.339844 130.933594 110.511719 130.566406 110.664062 C 128.839844 111.390625 126.183594 111.6875 122.652344 111.554688 C 120.835938 111.488281 119.183594 111.316406 118.101562 111.1875 C 117.71875 111.894531 117.382812 112.730469 117.011719 113.808594 C 117.453125 112.527344 115.882812 110.8125 116.738281 109.589844 Z M 122.726562 109.953125 C 124.480469 110.019531 126.019531 109.976562 127.296875 109.820312 C 128.824219 109.632812 129.953125 109.296875 130.660156 108.816406 C 132.214844 107.761719 132.644531 105.09375 132.726562 103.042969 C 132.746094 102.582031 132.75 102.132812 132.742188 101.703125 C 131.488281 102.585938 130.128906 103.304688 128.667969 104.003906 C 128.679688 104.027344 128.691406 104.054688 128.699219 104.082031 C 129.289062 105.519531 128.613281 107.171875 127.191406 107.769531 C 125.824219 108.339844 124.265625 107.734375 123.621094 106.410156 C 122.625 106.941406 121.664062 107.527344 120.789062 108.207031 C 120.121094 108.722656 119.589844 109.195312 119.148438 109.691406 C 120.136719 109.796875 121.394531 109.90625 122.726562 109.953125 Z M 122.726562 109.953125 " fill-opacity="1" fill-rule="nonzero"/></g><path fill="#ffffff" d="M 129.226562 105.65625 C 129.046875 105.734375 128.875 105.820312 128.714844 105.910156 C 128.558594 106.003906 128.421875 106.09375 128.308594 106.1875 C 128.195312 106.277344 128.113281 106.363281 128.0625 106.441406 C 128.015625 106.519531 128 106.582031 128.023438 106.632812 C 128.042969 106.6875 128.101562 106.722656 128.191406 106.738281 C 128.277344 106.757812 128.394531 106.757812 128.539062 106.738281 C 128.683594 106.71875 128.84375 106.683594 129.019531 106.632812 C 129.195312 106.582031 129.375 106.515625 129.554688 106.4375 C 129.738281 106.359375 129.910156 106.273438 130.066406 106.183594 C 130.226562 106.089844 130.363281 106 130.476562 105.90625 C 130.589844 105.816406 130.671875 105.730469 130.71875 105.652344 C 130.769531 105.574219 130.785156 105.511719 130.761719 105.460938 C 130.738281 105.40625 130.683594 105.371094 130.59375 105.355469 C 130.503906 105.335938 130.386719 105.335938 130.246094 105.355469 C 130.101562 105.375 129.941406 105.410156 129.765625 105.460938 C 129.589844 105.511719 129.410156 105.578125 129.226562 105.65625 Z M 129.226562 105.65625 " fill-opacity="1" fill-rule="nonzero"/><g fill="#0d2380" fill-opacity="1"><g transform="translate(49.067431, 126.673792)"><g><path d="M 14.132812 17.648438 C 13.058594 18.097656 11.996094 18.253906 10.949219 18.113281 C 9.898438 17.972656 8.921875 17.632812 8.019531 17.09375 C 7.117188 16.554688 6.316406 15.875 5.613281 15.050781 C 4.910156 14.226562 4.363281 13.351562 3.976562 12.425781 C 3.25 10.691406 2.898438 8.957031 2.914062 7.222656 C 2.933594 5.492188 3.3125 3.796875 4.058594 2.144531 L 3.703125 2.292969 C 3.386719 2.421875 3.078125 2.558594 2.777344 2.695312 C 2.476562 2.832031 2.175781 2.976562 1.878906 3.125 L 1.820312 3.148438 C 1.621094 3.230469 1.421875 3.234375 1.21875 3.164062 C 1.015625 3.09375 0.859375 2.953125 0.746094 2.746094 C 0.652344 2.519531 0.644531 2.300781 0.71875 2.097656 C 0.796875 1.890625 0.9375 1.734375 1.148438 1.621094 C 1.453125 1.472656 1.765625 1.324219 2.082031 1.179688 C 2.398438 1.035156 2.714844 0.898438 3.03125 0.765625 C 4.035156 0.347656 4.984375 0.0078125 5.878906 -0.25 C 6.773438 -0.507812 7.675781 -0.730469 8.582031 -0.910156 C 8.789062 -0.941406 8.980469 -0.914062 9.15625 -0.828125 C 9.328125 -0.746094 9.457031 -0.609375 9.535156 -0.421875 C 9.628906 -0.195312 9.621094 0.0273438 9.511719 0.246094 C 9.398438 0.46875 9.253906 0.613281 9.078125 0.6875 C 9.058594 0.695312 9.035156 0.707031 9.011719 0.714844 C 8.988281 0.726562 8.957031 0.726562 8.917969 0.71875 C 8.671875 0.765625 8.441406 0.8125 8.238281 0.859375 C 8.03125 0.902344 7.828125 0.945312 7.632812 0.988281 C 7.433594 1.03125 7.234375 1.078125 7.03125 1.136719 C 6.828125 1.191406 6.605469 1.253906 6.355469 1.324219 C 5.398438 3.019531 4.832031 4.738281 4.660156 6.476562 C 4.492188 8.214844 4.777344 9.972656 5.515625 11.746094 C 5.726562 12.25 5.996094 12.773438 6.328125 13.3125 C 6.65625 13.851562 7.039062 14.316406 7.476562 14.707031 C 7.910156 15.097656 8.390625 15.375 8.914062 15.53125 C 9.4375 15.6875 10 15.640625 10.601562 15.390625 C 11.023438 15.214844 11.363281 14.9375 11.621094 14.566406 C 11.875 14.191406 12.066406 13.765625 12.1875 13.285156 C 12.3125 12.804688 12.382812 12.292969 12.402344 11.746094 C 12.425781 11.199219 12.417969 10.660156 12.382812 10.128906 C 12.34375 9.601562 12.292969 9.105469 12.21875 8.644531 C 12.148438 8.179688 12.078125 7.789062 12.015625 7.46875 C 11.871094 6.707031 11.746094 5.941406 11.640625 5.175781 C 11.535156 4.410156 11.480469 3.664062 11.476562 2.933594 C 11.472656 2.207031 11.53125 1.503906 11.65625 0.828125 C 11.777344 0.152344 11.992188 -0.480469 12.296875 -1.066406 C 12.601562 -1.652344 13.019531 -2.183594 13.546875 -2.664062 C 14.078125 -3.148438 14.746094 -3.554688 15.554688 -3.894531 C 16.34375 -4.222656 17.113281 -4.421875 17.867188 -4.488281 C 18.621094 -4.554688 19.34375 -4.511719 20.03125 -4.359375 C 20.722656 -4.207031 21.371094 -3.960938 21.984375 -3.617188 C 22.59375 -3.277344 23.160156 -2.863281 23.683594 -2.375 C 24.207031 -1.886719 24.671875 -1.339844 25.085938 -0.730469 C 25.496094 -0.117188 25.84375 0.527344 26.128906 1.207031 C 26.300781 1.621094 26.453125 2.074219 26.585938 2.570312 C 26.714844 3.066406 26.820312 3.570312 26.902344 4.078125 C 26.984375 4.589844 27.039062 5.101562 27.074219 5.613281 C 27.109375 6.125 27.117188 6.613281 27.09375 7.074219 C 27.074219 7.535156 27.023438 7.957031 26.945312 8.335938 C 26.867188 8.714844 26.757812 9.039062 26.625 9.300781 C 27.058594 9.28125 27.496094 9.277344 27.933594 9.285156 C 28.371094 9.292969 28.8125 9.308594 29.261719 9.328125 C 29.433594 9.351562 29.582031 9.40625 29.707031 9.5 C 29.832031 9.59375 29.921875 9.707031 29.980469 9.84375 C 30.074219 10.074219 30.074219 10.292969 29.972656 10.507812 C 29.871094 10.726562 29.722656 10.875 29.523438 10.957031 C 29.417969 11.003906 29.289062 11.019531 29.148438 11.011719 C 27.867188 10.941406 26.625 10.96875 25.417969 11.085938 C 24.210938 11.199219 23.03125 11.417969 21.878906 11.738281 C 21.671875 11.800781 21.476562 11.785156 21.296875 11.695312 C 21.113281 11.601562 20.980469 11.460938 20.898438 11.261719 C 20.800781 11.035156 20.808594 10.8125 20.914062 10.59375 C 21.019531 10.378906 21.15625 10.234375 21.324219 10.164062 L 21.414062 10.125 C 22.507812 9.808594 23.625 9.589844 24.769531 9.46875 C 24.921875 9.335938 25.046875 9.105469 25.148438 8.773438 C 25.246094 8.441406 25.3125 8.058594 25.351562 7.621094 C 25.386719 7.183594 25.398438 6.699219 25.378906 6.175781 C 25.363281 5.648438 25.320312 5.121094 25.25 4.597656 C 25.179688 4.070312 25.085938 3.550781 24.96875 3.046875 C 24.847656 2.539062 24.707031 2.089844 24.542969 1.695312 C 24.292969 1.09375 23.984375 0.542969 23.628906 0.046875 C 23.269531 -0.453125 22.855469 -0.855469 22.390625 -1.167969 C 21.925781 -1.476562 21.414062 -1.671875 20.855469 -1.75 C 20.292969 -1.828125 19.695312 -1.738281 19.0625 -1.484375 C 18.527344 -1.214844 18.113281 -0.867188 17.824219 -0.4375 C 17.53125 -0.0117188 17.320312 0.460938 17.1875 0.972656 C 17.054688 1.484375 16.988281 2.03125 16.992188 2.609375 C 16.996094 3.1875 17.035156 3.757812 17.105469 4.328125 C 17.171875 4.894531 17.257812 5.441406 17.355469 5.96875 C 17.453125 6.492188 17.539062 6.972656 17.617188 7.402344 C 17.796875 8.5 17.929688 9.5625 18.011719 10.59375 C 18.09375 11.621094 18.039062 12.582031 17.839844 13.46875 C 17.644531 14.355469 17.257812 15.15625 16.683594 15.871094 C 16.105469 16.585938 15.257812 17.179688 14.132812 17.648438 Z M 14.132812 17.648438 "/></g></g></g><g fill="#0d2380" fill-opacity="1"><g transform="translate(60.784675, 152.080372)"><g><path d="M 19.625 7.511719 C 20.140625 6.984375 20.578125 6.390625 20.9375 5.726562 C 21.296875 5.066406 21.535156 4.390625 21.644531 3.703125 C 21.757812 3.011719 21.726562 2.328125 21.558594 1.660156 C 21.390625 0.992188 21.035156 0.386719 20.492188 -0.160156 C 20.09375 -0.5625 19.628906 -0.851562 19.105469 -1.03125 C 18.582031 -1.210938 18.027344 -1.300781 17.453125 -1.304688 C 16.875 -1.3125 16.285156 -1.242188 15.6875 -1.101562 C 15.089844 -0.957031 14.515625 -0.765625 13.957031 -0.519531 C 13.402344 -0.277344 12.882812 0.00390625 12.398438 0.320312 C 11.914062 0.636719 11.5 0.964844 11.160156 1.304688 L 8.855469 3.601562 C 8.589844 4.046875 8.445312 4.507812 8.417969 4.988281 C 8.386719 5.46875 8.441406 5.945312 8.570312 6.417969 C 8.703125 6.890625 8.902344 7.339844 9.167969 7.765625 C 9.4375 8.195312 9.734375 8.570312 10.058594 8.894531 C 10.554688 9.394531 11.085938 9.761719 11.648438 9.992188 C 12.210938 10.222656 12.78125 10.351562 13.363281 10.375 C 13.945312 10.398438 14.523438 10.335938 15.101562 10.179688 C 15.679688 10.027344 16.242188 9.816406 16.789062 9.542969 C 17.332031 9.273438 17.847656 8.960938 18.332031 8.605469 C 18.816406 8.253906 19.246094 7.886719 19.625 7.511719 Z M 20.835938 8.726562 C 20.289062 9.269531 19.695312 9.757812 19.054688 10.195312 C 18.410156 10.632812 17.742188 10.996094 17.042969 11.289062 C 16.347656 11.582031 15.640625 11.796875 14.917969 11.925781 C 14.195312 12.058594 13.480469 12.082031 12.777344 12 C 12.070312 11.921875 11.382812 11.726562 10.714844 11.417969 C 10.046875 11.113281 9.425781 10.671875 8.851562 10.09375 C 8.242188 9.480469 7.753906 8.796875 7.382812 8.039062 C 7.015625 7.285156 6.800781 6.503906 6.742188 5.703125 L 1.394531 11.03125 C 1.550781 11.21875 1.710938 11.414062 1.875 11.617188 C 2.035156 11.816406 2.191406 12.015625 2.34375 12.210938 C 2.472656 12.386719 2.523438 12.578125 2.507812 12.785156 C 2.488281 12.992188 2.410156 13.164062 2.273438 13.300781 C 2.074219 13.496094 1.855469 13.578125 1.613281 13.546875 C 1.371094 13.515625 1.1875 13.4375 1.058594 13.308594 L 0.992188 13.238281 C 0.609375 12.734375 0.203125 12.222656 -0.222656 11.714844 C -0.648438 11.203125 -1.121094 10.683594 -1.640625 10.164062 C -2.117188 9.6875 -2.632812 9.207031 -3.191406 8.730469 C -3.75 8.253906 -4.386719 7.777344 -5.105469 7.300781 L -5.195312 7.207031 C -5.367188 7.035156 -5.453125 6.832031 -5.449219 6.601562 C -5.445312 6.371094 -5.367188 6.179688 -5.214844 6.03125 C -5.070312 5.886719 -4.902344 5.804688 -4.703125 5.78125 C -4.507812 5.757812 -4.320312 5.808594 -4.136719 5.929688 C -3.59375 6.292969 -3.101562 6.652344 -2.65625 7.011719 L 12.300781 -7.886719 C 11.917969 -8.316406 11.609375 -8.679688 11.382812 -8.980469 C 11.152344 -9.28125 11.023438 -9.441406 11.003906 -9.464844 C 10.875 -9.636719 10.816406 -9.828125 10.832031 -10.042969 C 10.847656 -10.253906 10.925781 -10.425781 11.0625 -10.5625 C 11.257812 -10.757812 11.480469 -10.839844 11.726562 -10.804688 C 11.96875 -10.769531 12.15625 -10.6875 12.285156 -10.558594 L 12.355469 -10.492188 C 12.359375 -10.484375 12.429688 -10.394531 12.5625 -10.226562 C 12.695312 -10.054688 12.871094 -9.832031 13.089844 -9.558594 C 13.308594 -9.289062 13.566406 -8.984375 13.863281 -8.648438 C 14.160156 -8.308594 14.480469 -7.972656 14.816406 -7.628906 C 15.148438 -7.296875 15.496094 -6.976562 15.851562 -6.671875 C 16.210938 -6.363281 16.5625 -6.097656 16.910156 -5.867188 C 16.957031 -5.855469 17.003906 -5.820312 17.058594 -5.765625 C 17.230469 -5.59375 17.3125 -5.382812 17.296875 -5.144531 C 17.28125 -4.902344 17.195312 -4.703125 17.042969 -4.554688 L 15.191406 -2.710938 C 16.441406 -3.046875 17.628906 -3.113281 18.757812 -2.902344 C 19.886719 -2.691406 20.863281 -2.171875 21.683594 -1.347656 C 22.421875 -0.605469 22.914062 0.210938 23.152344 1.101562 C 23.390625 1.996094 23.445312 2.898438 23.3125 3.808594 C 23.175781 4.71875 22.886719 5.597656 22.4375 6.453125 C 21.992188 7.304688 21.457031 8.0625 20.835938 8.726562 Z M 20.835938 8.726562 "/></g></g></g><g fill="#0d2380" fill-opacity="1"><g transform="translate(80.06355, 170.043243)"><g><path d="M 17.726562 -0.558594 C 17.367188 -0.722656 17.0625 -0.949219 16.808594 -1.230469 C 16.554688 -1.511719 16.367188 -1.824219 16.242188 -2.164062 C 16.117188 -2.503906 16.058594 -2.863281 16.070312 -3.242188 C 16.078125 -3.617188 16.167969 -3.988281 16.332031 -4.347656 C 16.5 -4.703125 16.722656 -5.011719 17.003906 -5.261719 C 17.285156 -5.515625 17.597656 -5.707031 17.941406 -5.835938 C 18.285156 -5.964844 18.644531 -6.027344 19.027344 -6.023438 C 19.40625 -6.019531 19.777344 -5.933594 20.132812 -5.765625 C 20.183594 -5.742188 20.226562 -5.71875 20.265625 -5.6875 C 20.304688 -5.65625 20.347656 -5.632812 20.398438 -5.609375 C 20.234375 -5.917969 20.011719 -6.203125 19.722656 -6.460938 C 19.433594 -6.714844 19.074219 -6.945312 18.636719 -7.148438 C 18.085938 -7.402344 17.550781 -7.511719 17.039062 -7.472656 C 16.527344 -7.433594 16.046875 -7.308594 15.601562 -7.09375 C 15.15625 -6.882812 14.753906 -6.617188 14.390625 -6.296875 C 14.03125 -5.972656 13.71875 -5.660156 13.453125 -5.351562 C 13.1875 -5.046875 12.980469 -4.773438 12.828125 -4.539062 C 12.679688 -4.300781 12.59375 -4.164062 12.574219 -4.125 L 9.558594 2.320312 C 9.882812 2.507812 10.207031 2.707031 10.523438 2.925781 C 10.839844 3.144531 11.164062 3.363281 11.496094 3.589844 C 11.660156 3.722656 11.765625 3.886719 11.816406 4.082031 C 11.867188 4.277344 11.851562 4.464844 11.765625 4.648438 C 11.667969 4.863281 11.503906 5 11.273438 5.066406 C 11.042969 5.128906 10.835938 5.121094 10.652344 5.035156 L 10.507812 4.96875 C 9.789062 4.457031 9.09375 4 8.421875 3.597656 C 7.75 3.191406 7.0625 2.828125 6.363281 2.503906 C 5.667969 2.179688 4.949219 1.894531 4.214844 1.652344 C 3.484375 1.40625 2.6875 1.171875 1.835938 0.957031 L 1.691406 0.886719 C 1.46875 0.785156 1.324219 0.625 1.257812 0.414062 C 1.191406 0.199219 1.203125 -0.00390625 1.292969 -0.195312 C 1.378906 -0.382812 1.503906 -0.519531 1.675781 -0.609375 C 1.847656 -0.703125 2.039062 -0.730469 2.246094 -0.691406 C 2.613281 -0.59375 2.976562 -0.496094 3.34375 -0.394531 C 3.710938 -0.296875 4.066406 -0.183594 4.410156 -0.0625 L 9.421875 -10.898438 C 8.824219 -11.210938 8.328125 -11.488281 7.933594 -11.730469 C 7.539062 -11.96875 7.324219 -12.113281 7.285156 -12.152344 C 7.097656 -12.261719 6.976562 -12.414062 6.921875 -12.613281 C 6.867188 -12.808594 6.882812 -13.003906 6.972656 -13.199219 C 7.085938 -13.441406 7.257812 -13.589844 7.488281 -13.648438 C 7.722656 -13.707031 7.925781 -13.695312 8.101562 -13.613281 L 8.203125 -13.566406 C 8.207031 -13.550781 8.3125 -13.484375 8.511719 -13.359375 C 8.714844 -13.238281 8.980469 -13.082031 9.304688 -12.894531 C 9.632812 -12.710938 10.011719 -12.503906 10.441406 -12.28125 C 10.875 -12.058594 11.320312 -11.839844 11.773438 -11.628906 C 12.238281 -11.414062 12.703125 -11.21875 13.164062 -11.042969 C 13.621094 -10.863281 14.058594 -10.726562 14.472656 -10.628906 C 14.5 -10.640625 14.554688 -10.625 14.632812 -10.589844 C 14.855469 -10.488281 15 -10.320312 15.074219 -10.09375 C 15.144531 -9.867188 15.136719 -9.65625 15.046875 -9.464844 L 14.5625 -8.414062 C 15.246094 -8.804688 15.996094 -9.042969 16.808594 -9.132812 C 17.621094 -9.222656 18.464844 -9.066406 19.335938 -8.660156 C 19.988281 -8.335938 20.535156 -7.945312 20.984375 -7.484375 C 21.429688 -7.023438 21.765625 -6.523438 21.988281 -5.976562 C 22.214844 -5.429688 22.316406 -4.851562 22.300781 -4.242188 C 22.28125 -3.632812 22.128906 -3.011719 21.835938 -2.382812 C 21.652344 -1.984375 21.414062 -1.632812 21.117188 -1.320312 C 20.820312 -1.011719 20.488281 -0.765625 20.125 -0.589844 C 19.757812 -0.410156 19.367188 -0.3125 18.957031 -0.296875 C 18.542969 -0.28125 18.132812 -0.371094 17.726562 -0.558594 Z M 17.726562 -0.558594 "/></g></g></g><g fill="#0d2380" fill-opacity="1"><g transform="translate(100.944236, 178.718113)"><g><path d="M 11.410156 2.246094 C 11.386719 2.242188 11.363281 2.230469 11.339844 2.21875 C 11.316406 2.203125 11.289062 2.191406 11.253906 2.1875 C 10.429688 1.878906 9.636719 1.625 8.878906 1.421875 C 8.121094 1.21875 7.363281 1.054688 6.601562 0.933594 C 5.832031 0.808594 5.0625 0.726562 4.289062 0.683594 C 3.515625 0.640625 2.695312 0.632812 1.824219 0.667969 C 1.792969 0.664062 1.765625 0.664062 1.742188 0.671875 C 1.71875 0.675781 1.691406 0.679688 1.660156 0.671875 C 1.417969 0.632812 1.234375 0.511719 1.109375 0.308594 C 0.988281 0.105469 0.941406 -0.101562 0.976562 -0.3125 C 1.007812 -0.503906 1.09375 -0.667969 1.242188 -0.804688 C 1.390625 -0.945312 1.558594 -1.015625 1.753906 -1.015625 C 2.136719 -1.039062 2.519531 -1.046875 2.902344 -1.035156 C 3.285156 -1.019531 3.660156 -1.011719 4.027344 -1.007812 L 5.980469 -13.128906 C 5.320312 -13.265625 4.769531 -13.398438 4.324219 -13.527344 C 3.878906 -13.652344 3.628906 -13.71875 3.574219 -13.726562 C 3.371094 -13.792969 3.214844 -13.914062 3.105469 -14.09375 C 3 -14.273438 2.964844 -14.46875 3 -14.679688 C 3.042969 -14.945312 3.167969 -15.128906 3.378906 -15.234375 C 3.59375 -15.34375 3.789062 -15.382812 3.96875 -15.351562 L 4.0625 -15.335938 C 4.074219 -15.335938 4.191406 -15.300781 4.421875 -15.238281 C 4.648438 -15.175781 4.945312 -15.097656 5.316406 -15.003906 C 5.683594 -14.914062 6.105469 -14.816406 6.574219 -14.710938 C 7.046875 -14.609375 7.535156 -14.519531 8.042969 -14.4375 C 8.546875 -14.355469 9.046875 -14.292969 9.539062 -14.25 C 10.027344 -14.210938 10.480469 -14.203125 10.898438 -14.234375 L 11.074219 -14.207031 C 11.316406 -14.167969 11.503906 -14.054688 11.632812 -13.863281 C 11.765625 -13.675781 11.816406 -13.476562 11.78125 -13.265625 L 9.628906 -0.105469 C 9.988281 0.0078125 10.351562 0.117188 10.71875 0.226562 C 11.085938 0.332031 11.457031 0.460938 11.835938 0.609375 C 12.03125 0.671875 12.179688 0.792969 12.28125 0.972656 C 12.378906 1.152344 12.414062 1.335938 12.386719 1.523438 C 12.347656 1.769531 12.222656 1.957031 12.019531 2.089844 C 11.8125 2.226562 11.609375 2.277344 11.410156 2.246094 Z M 12.46875 -18.933594 C 12.40625 -18.542969 12.273438 -18.1875 12.070312 -17.871094 C 11.867188 -17.550781 11.613281 -17.285156 11.316406 -17.074219 C 11.015625 -16.863281 10.683594 -16.710938 10.316406 -16.617188 C 9.949219 -16.527344 9.570312 -16.511719 9.179688 -16.574219 C 8.789062 -16.636719 8.4375 -16.769531 8.117188 -16.972656 C 7.796875 -17.175781 7.53125 -17.425781 7.320312 -17.71875 C 7.109375 -18.011719 6.953125 -18.34375 6.863281 -18.710938 C 6.769531 -19.074219 6.753906 -19.453125 6.816406 -19.84375 C 6.882812 -20.234375 7.015625 -20.589844 7.21875 -20.910156 C 7.421875 -21.226562 7.667969 -21.492188 7.960938 -21.707031 C 8.257812 -21.917969 8.585938 -22.070312 8.953125 -22.164062 C 9.320312 -22.253906 9.699219 -22.269531 10.089844 -22.207031 C 10.480469 -22.144531 10.832031 -22.011719 11.152344 -21.808594 C 11.472656 -21.605469 11.742188 -21.355469 11.957031 -21.0625 C 12.175781 -20.765625 12.332031 -20.4375 12.421875 -20.070312 C 12.515625 -19.703125 12.53125 -19.324219 12.46875 -18.933594 Z M 12.46875 -18.933594 "/></g></g></g><g fill="#0d2380" fill-opacity="1"><g transform="translate(116.952345, 181.4424)"><g><path d="M 21.320312 -3.578125 C 21.328125 -3.363281 21.253906 -3.171875 21.105469 -3.007812 C 20.953125 -2.84375 20.773438 -2.746094 20.5625 -2.714844 L 20.5 -2.707031 C 19.984375 -2.691406 19.488281 -2.667969 19.011719 -2.632812 C 18.539062 -2.59375 18.074219 -2.546875 17.617188 -2.484375 C 16.949219 -2.394531 16.316406 -2.28125 15.714844 -2.140625 C 15.113281 -2 14.527344 -1.84375 13.957031 -1.671875 C 13.9375 -1.667969 13.914062 -1.660156 13.890625 -1.648438 C 13.863281 -1.632812 13.839844 -1.625 13.820312 -1.621094 C 13.597656 -1.589844 13.390625 -1.652344 13.195312 -1.804688 C 13.003906 -1.957031 12.894531 -2.140625 12.863281 -2.351562 C 12.839844 -2.542969 12.882812 -2.726562 12.992188 -2.902344 C 13.105469 -3.078125 13.253906 -3.195312 13.441406 -3.253906 C 13.875 -3.398438 14.3125 -3.523438 14.753906 -3.628906 C 15.199219 -3.738281 15.65625 -3.84375 16.128906 -3.953125 C 16.179688 -4.292969 16.21875 -4.75 16.25 -5.324219 C 16.28125 -5.902344 16.300781 -6.519531 16.304688 -7.175781 C 16.308594 -7.835938 16.292969 -8.496094 16.265625 -9.160156 C 16.234375 -9.824219 16.183594 -10.417969 16.117188 -10.933594 C 16.042969 -11.476562 15.9375 -12.058594 15.792969 -12.6875 C 15.648438 -13.316406 15.4375 -13.894531 15.15625 -14.421875 C 14.875 -14.949219 14.515625 -15.375 14.082031 -15.691406 C 13.644531 -16.011719 13.105469 -16.128906 12.457031 -16.042969 C 11.726562 -15.945312 11.074219 -15.671875 10.496094 -15.230469 C 9.917969 -14.785156 9.441406 -14.257812 9.066406 -13.640625 C 8.691406 -13.023438 8.417969 -12.363281 8.25 -11.664062 C 8.078125 -10.960938 8.035156 -10.300781 8.117188 -9.6875 L 8.121094 -9.65625 L 9.023438 -2.660156 C 9.214844 -2.667969 9.40625 -2.671875 9.585938 -2.679688 C 9.769531 -2.6875 9.953125 -2.6875 10.136719 -2.679688 C 10.351562 -2.6875 10.539062 -2.625 10.703125 -2.492188 C 10.867188 -2.355469 10.964844 -2.183594 10.992188 -1.972656 C 11.023438 -1.738281 10.960938 -1.523438 10.808594 -1.332031 C 10.65625 -1.140625 10.476562 -1.027344 10.265625 -1 C 10.222656 -0.996094 10.1875 -1.007812 10.164062 -1.035156 C 9.519531 -1.015625 8.859375 -0.992188 8.191406 -0.964844 C 7.519531 -0.941406 6.820312 -0.878906 6.089844 -0.78125 C 5.433594 -0.695312 4.746094 -0.566406 4.03125 -0.402344 C 3.3125 -0.234375 2.550781 -0.0234375 1.746094 0.234375 C 1.707031 0.261719 1.65625 0.28125 1.589844 0.289062 C 1.347656 0.320312 1.140625 0.257812 0.96875 0.0976562 C 0.792969 -0.0625 0.695312 -0.25 0.667969 -0.460938 C 0.640625 -0.652344 0.675781 -0.835938 0.769531 -1.007812 C 0.867188 -1.183594 1.011719 -1.300781 1.210938 -1.359375 C 1.589844 -1.496094 1.957031 -1.613281 2.308594 -1.707031 C 2.664062 -1.804688 3.019531 -1.890625 3.375 -1.972656 L 1.753906 -14.109375 C 1.082031 -14.050781 0.515625 -14.015625 0.0585938 -14.003906 C -0.394531 -13.992188 -0.652344 -13.992188 -0.707031 -14.007812 C -0.921875 -14 -1.105469 -14.066406 -1.261719 -14.207031 C -1.414062 -14.347656 -1.503906 -14.523438 -1.535156 -14.738281 C -1.566406 -14.992188 -1.503906 -15.207031 -1.34375 -15.382812 C -1.1875 -15.5625 -1.003906 -15.664062 -0.804688 -15.691406 C -0.761719 -15.695312 -0.730469 -15.691406 -0.703125 -15.671875 C -0.695312 -15.675781 -0.570312 -15.679688 -0.335938 -15.691406 C -0.0976562 -15.699219 0.207031 -15.714844 0.589844 -15.730469 C 0.96875 -15.75 1.398438 -15.78125 1.878906 -15.824219 C 2.359375 -15.867188 2.851562 -15.921875 3.359375 -15.988281 C 3.867188 -16.058594 4.363281 -16.136719 4.847656 -16.230469 C 5.332031 -16.320312 5.769531 -16.441406 6.160156 -16.589844 C 6.179688 -16.59375 6.203125 -16.601562 6.226562 -16.617188 C 6.253906 -16.628906 6.28125 -16.640625 6.3125 -16.644531 C 6.558594 -16.675781 6.773438 -16.617188 6.960938 -16.460938 C 7.148438 -16.308594 7.253906 -16.128906 7.285156 -15.914062 L 7.503906 -14.28125 C 7.996094 -15.261719 8.640625 -16.039062 9.429688 -16.613281 C 10.222656 -17.191406 11.15625 -17.550781 12.238281 -17.695312 C 12.871094 -17.777344 13.441406 -17.746094 13.941406 -17.589844 C 14.441406 -17.4375 14.886719 -17.195312 15.28125 -16.871094 C 15.675781 -16.546875 16.011719 -16.160156 16.292969 -15.707031 C 16.578125 -15.253906 16.820312 -14.769531 17.023438 -14.257812 C 17.226562 -13.746094 17.386719 -13.222656 17.507812 -12.683594 C 17.628906 -12.144531 17.71875 -11.636719 17.785156 -11.160156 C 17.855469 -10.628906 17.90625 -10.046875 17.9375 -9.410156 C 17.96875 -8.769531 17.984375 -8.132812 17.988281 -7.5 C 17.996094 -6.863281 17.984375 -6.257812 17.957031 -5.683594 C 17.933594 -5.109375 17.898438 -4.621094 17.855469 -4.214844 C 18.261719 -4.246094 18.679688 -4.28125 19.109375 -4.316406 C 19.542969 -4.355469 19.984375 -4.375 20.4375 -4.382812 C 20.683594 -4.394531 20.882812 -4.316406 21.042969 -4.148438 C 21.199219 -3.980469 21.292969 -3.789062 21.320312 -3.578125 Z M 21.320312 -3.578125 "/></g></g></g><g fill="#0d2380" fill-opacity="1"><g transform="translate(141.871202, 177.00843)"><g><path d="M 6.066406 -20.167969 C 6.15625 -19.976562 6.171875 -19.773438 6.113281 -19.5625 C 6.054688 -19.347656 5.933594 -19.1875 5.75 -19.078125 C 5.148438 -18.730469 4.546875 -18.390625 3.945312 -18.058594 C 3.347656 -17.722656 2.738281 -17.398438 2.121094 -17.082031 L 6.949219 -6.953125 C 7.039062 -6.757812 7.167969 -6.601562 7.328125 -6.476562 C 7.488281 -6.351562 7.660156 -6.261719 7.84375 -6.207031 C 8.03125 -6.152344 8.222656 -6.132812 8.417969 -6.144531 C 8.613281 -6.152344 8.800781 -6.199219 8.972656 -6.285156 C 9.234375 -6.40625 9.414062 -6.578125 9.515625 -6.800781 C 9.617188 -7.019531 9.679688 -7.261719 9.695312 -7.523438 C 9.710938 -7.785156 9.703125 -8.050781 9.664062 -8.316406 C 9.625 -8.582031 9.585938 -8.820312 9.546875 -9.027344 C 9.492188 -9.214844 9.511719 -9.398438 9.605469 -9.578125 C 9.695312 -9.757812 9.828125 -9.886719 10.003906 -9.96875 C 10.222656 -10.078125 10.445312 -10.078125 10.664062 -9.976562 C 10.886719 -9.875 11.039062 -9.734375 11.121094 -9.5625 L 11.195312 -9.402344 C 11.527344 -7.988281 11.449219 -6.734375 10.964844 -5.644531 C 10.476562 -4.554688 9.632812 -3.722656 8.425781 -3.144531 C 7.875 -2.882812 7.277344 -2.6875 6.628906 -2.554688 C 5.980469 -2.425781 5.328125 -2.445312 4.671875 -2.617188 C 4.015625 -2.789062 3.371094 -3.15625 2.742188 -3.710938 C 2.109375 -4.269531 1.523438 -5.105469 0.992188 -6.226562 L -3.027344 -14.660156 C -3.476562 -14.484375 -3.925781 -14.304688 -4.378906 -14.125 C -4.832031 -13.945312 -5.289062 -13.765625 -5.75 -13.59375 C -5.957031 -13.53125 -6.160156 -13.539062 -6.359375 -13.625 C -6.558594 -13.707031 -6.707031 -13.84375 -6.796875 -14.035156 C -6.902344 -14.257812 -6.902344 -14.476562 -6.800781 -14.691406 C -6.695312 -14.90625 -6.554688 -15.058594 -6.382812 -15.140625 L -6.324219 -15.167969 C -5.886719 -15.339844 -5.457031 -15.511719 -5.03125 -15.675781 C -4.609375 -15.84375 -4.183594 -16.011719 -3.753906 -16.179688 L -6.097656 -21.101562 C -6.175781 -21.261719 -6.195312 -21.441406 -6.15625 -21.632812 C -6.117188 -21.820312 -6.027344 -21.980469 -5.886719 -22.105469 L -2.730469 -24.800781 C -2.710938 -24.832031 -2.683594 -24.863281 -2.644531 -24.882812 C -2.609375 -24.90625 -2.578125 -24.925781 -2.546875 -24.941406 C -2.328125 -25.046875 -2.105469 -25.050781 -1.890625 -24.953125 C -1.671875 -24.855469 -1.515625 -24.710938 -1.421875 -24.515625 L 1.398438 -18.601562 C 1.976562 -18.898438 2.558594 -19.210938 3.144531 -19.53125 C 3.734375 -19.851562 4.320312 -20.183594 4.902344 -20.519531 L 4.960938 -20.546875 C 5.171875 -20.648438 5.386719 -20.660156 5.601562 -20.578125 C 5.820312 -20.496094 5.972656 -20.359375 6.066406 -20.167969 Z M 6.066406 -20.167969 "/></g></g></g><g fill="#0d2380" fill-opacity="1"><g transform="translate(60.51649, 117.049274)"><g><path d="M -19.3125 -28.21875 C -19.023438 -28.1875 -18.808594 -28.101562 -18.660156 -27.960938 C -18.515625 -27.820312 -18.425781 -27.664062 -18.394531 -27.484375 C -18.339844 -26.90625 -18.304688 -26.355469 -18.289062 -25.824219 C -18.273438 -25.292969 -18.273438 -24.765625 -18.285156 -24.238281 C -17.832031 -24.136719 -17.078125 -23.980469 -16.027344 -23.773438 C -14.976562 -23.5625 -13.683594 -23.328125 -12.152344 -23.074219 C -10.617188 -22.816406 -8.875 -22.550781 -6.925781 -22.269531 C -4.972656 -21.992188 -2.871094 -21.734375 -0.617188 -21.496094 L 0.890625 -21.335938 C 0.945312 -21.847656 1.011719 -22.351562 1.089844 -22.851562 C 1.167969 -23.351562 1.261719 -23.871094 1.371094 -24.410156 C 1.449219 -24.640625 1.574219 -24.808594 1.746094 -24.914062 C 1.917969 -25.019531 2.117188 -25.0625 2.339844 -25.039062 C 2.554688 -24.996094 2.71875 -24.886719 2.835938 -24.714844 C 2.953125 -24.539062 3 -24.351562 2.976562 -24.144531 L 2.972656 -24.085938 C 2.859375 -23.503906 2.753906 -22.9375 2.664062 -22.375 C 2.574219 -21.816406 2.5 -21.257812 2.441406 -20.703125 C 2.382812 -20.148438 2.339844 -19.601562 2.3125 -19.054688 C 2.285156 -18.507812 2.269531 -17.96875 2.265625 -17.441406 L 2.253906 -17.332031 C 2.230469 -17.097656 2.128906 -16.910156 1.949219 -16.773438 C 1.765625 -16.640625 1.574219 -16.582031 1.371094 -16.601562 C 1.164062 -16.625 0.992188 -16.714844 0.851562 -16.867188 C 0.714844 -17.023438 0.640625 -17.203125 0.632812 -17.414062 C 0.640625 -17.804688 0.65625 -18.191406 0.667969 -18.574219 C 0.683594 -18.957031 0.699219 -19.34375 0.722656 -19.734375 L -0.785156 -19.894531 C -3.03125 -20.132812 -5.128906 -20.386719 -7.082031 -20.65625 C -7.085938 -19.804688 -7.121094 -18.960938 -7.179688 -18.113281 C -7.238281 -17.269531 -7.308594 -16.429688 -7.398438 -15.589844 C -7.488281 -14.738281 -7.59375 -13.90625 -7.710938 -13.09375 C -7.828125 -12.28125 -7.96875 -11.484375 -8.132812 -10.707031 L -0.371094 -9.695312 C -0.300781 -10.082031 -0.226562 -10.476562 -0.152344 -10.878906 C -0.0820312 -11.28125 -0.0078125 -11.683594 0.0664062 -12.089844 C 0.121094 -12.292969 0.230469 -12.457031 0.398438 -12.578125 C 0.566406 -12.699219 0.753906 -12.75 0.960938 -12.726562 C 1.195312 -12.703125 1.378906 -12.59375 1.507812 -12.40625 C 1.636719 -12.214844 1.691406 -12.023438 1.671875 -11.828125 L 1.667969 -11.765625 C 1.496094 -10.957031 1.347656 -10.144531 1.214844 -9.335938 C 1.082031 -8.523438 0.972656 -7.707031 0.886719 -6.886719 C 0.800781 -6.078125 0.738281 -5.273438 0.699219 -4.472656 C 0.660156 -3.675781 0.640625 -2.871094 0.636719 -2.0625 L 0.632812 -2 C 0.605469 -1.765625 0.503906 -1.578125 0.324219 -1.441406 C 0.144531 -1.304688 -0.0507812 -1.25 -0.253906 -1.269531 C -0.460938 -1.292969 -0.632812 -1.382812 -0.769531 -1.535156 C -0.910156 -1.691406 -0.984375 -1.871094 -0.992188 -2.082031 C -0.984375 -2.460938 -0.972656 -2.847656 -0.964844 -3.234375 C -0.953125 -3.625 -0.945312 -4.007812 -0.933594 -4.390625 L -20.304688 -6.800781 C -20.460938 -5.925781 -20.644531 -5.042969 -20.863281 -4.152344 C -20.917969 -3.953125 -21.027344 -3.796875 -21.195312 -3.683594 C -21.363281 -3.570312 -21.539062 -3.523438 -21.722656 -3.542969 C -21.988281 -3.574219 -22.183594 -3.6875 -22.308594 -3.886719 C -22.433594 -4.085938 -22.484375 -4.273438 -22.464844 -4.449219 L -22.457031 -4.539062 C -22.175781 -5.609375 -21.949219 -6.667969 -21.769531 -7.71875 C -21.589844 -8.765625 -21.445312 -9.8125 -21.335938 -10.859375 C -21.269531 -11.496094 -21.214844 -12.121094 -21.167969 -12.738281 C -21.125 -13.355469 -21.097656 -13.976562 -21.097656 -14.597656 L -21.089844 -14.660156 C -21.066406 -14.863281 -20.980469 -15.039062 -20.824219 -15.183594 C -20.667969 -15.328125 -20.488281 -15.398438 -20.28125 -15.398438 C -20.023438 -15.371094 -19.828125 -15.273438 -19.6875 -15.109375 C -19.550781 -14.945312 -19.480469 -14.757812 -19.484375 -14.550781 C -19.492188 -14.167969 -19.503906 -13.785156 -19.511719 -13.402344 C -19.519531 -13.019531 -19.535156 -12.628906 -19.558594 -12.226562 L -9.757812 -10.9375 C -9.585938 -11.6875 -9.4375 -12.472656 -9.316406 -13.289062 C -9.191406 -14.105469 -9.085938 -14.925781 -9 -15.757812 C -8.90625 -16.617188 -8.832031 -17.472656 -8.773438 -18.324219 C -8.714844 -19.171875 -8.679688 -20.027344 -8.671875 -20.886719 C -9.878906 -21.054688 -10.996094 -21.226562 -12.023438 -21.402344 C -13.050781 -21.582031 -13.980469 -21.746094 -14.808594 -21.902344 C -15.636719 -22.054688 -16.355469 -22.195312 -16.957031 -22.316406 C -17.5625 -22.4375 -18.042969 -22.535156 -18.394531 -22.617188 C -18.460938 -22.207031 -18.527344 -21.808594 -18.601562 -21.417969 C -18.671875 -21.023438 -18.765625 -20.636719 -18.878906 -20.257812 C -18.929688 -20.066406 -19.039062 -19.914062 -19.199219 -19.800781 C -19.363281 -19.6875 -19.539062 -19.640625 -19.734375 -19.664062 C -19.992188 -19.691406 -20.183594 -19.800781 -20.304688 -19.996094 C -20.429688 -20.191406 -20.484375 -20.375 -20.464844 -20.546875 L -20.453125 -20.671875 C -20.328125 -21.074219 -20.226562 -21.476562 -20.152344 -21.882812 C -20.078125 -22.289062 -20.019531 -22.710938 -19.972656 -23.140625 C -19.90625 -23.785156 -19.875 -24.453125 -19.886719 -25.144531 C -19.894531 -25.835938 -19.949219 -26.558594 -20.042969 -27.316406 L -20.023438 -27.5 C -20.003906 -27.695312 -19.925781 -27.855469 -19.796875 -27.980469 C -19.664062 -28.105469 -19.5 -28.1875 -19.3125 -28.21875 Z M -19.3125 -28.21875 "/></g></g></g><g fill="#0d2380" fill-opacity="1"><g transform="translate(62.735421, 94.858294)"><g><path d="M 1.011719 -12.898438 C 0.851562 -12.96875 0.683594 -13.042969 0.519531 -13.125 C 0.351562 -13.203125 0.183594 -13.292969 0.0117188 -13.390625 L -0.269531 -12.890625 C -0.46875 -12.53125 -0.679688 -12.089844 -0.898438 -11.570312 C -1.121094 -11.046875 -1.316406 -10.496094 -1.492188 -9.90625 C -1.667969 -9.320312 -1.800781 -8.714844 -1.894531 -8.09375 C -1.988281 -7.472656 -2.011719 -6.882812 -1.964844 -6.324219 C -1.914062 -5.765625 -1.777344 -5.261719 -1.546875 -4.808594 C -1.316406 -4.351562 -0.960938 -3.992188 -0.484375 -3.726562 C -0.234375 -3.585938 0.015625 -3.527344 0.265625 -3.546875 C 0.511719 -3.566406 0.746094 -3.636719 0.960938 -3.761719 C 1.175781 -3.882812 1.371094 -4.039062 1.546875 -4.238281 C 1.722656 -4.433594 1.867188 -4.636719 1.984375 -4.84375 C 2.339844 -5.484375 2.554688 -6.15625 2.628906 -6.867188 C 2.699219 -7.578125 2.671875 -8.285156 2.542969 -8.996094 C 2.414062 -9.707031 2.210938 -10.394531 1.933594 -11.058594 C 1.652344 -11.71875 1.347656 -12.335938 1.011719 -12.898438 Z M 9.300781 -16.753906 L 9.269531 -16.699219 C 9.164062 -16.554688 9.070312 -16.402344 8.976562 -16.242188 C 8.886719 -16.078125 8.800781 -15.921875 8.714844 -15.769531 C 8.242188 -14.921875 7.839844 -14.082031 7.511719 -13.242188 C 7.1875 -12.402344 6.914062 -11.53125 6.703125 -10.621094 C 6.6875 -10.59375 6.675781 -10.566406 6.671875 -10.53125 C 6.664062 -10.5 6.648438 -10.460938 6.625 -10.417969 C 6.507812 -10.210938 6.335938 -10.085938 6.105469 -10.042969 C 5.875 -10 5.679688 -10.023438 5.515625 -10.117188 L 5.40625 -10.175781 C 5.390625 -10.1875 5.21875 -10.308594 4.898438 -10.550781 C 4.578125 -10.789062 4.121094 -11.101562 3.523438 -11.496094 C 3.738281 -10.867188 3.910156 -10.230469 4.042969 -9.585938 C 4.171875 -8.941406 4.238281 -8.300781 4.242188 -7.664062 C 4.246094 -7.03125 4.1875 -6.410156 4.054688 -5.8125 C 3.925781 -5.210938 3.707031 -4.636719 3.402344 -4.085938 C 3.160156 -3.65625 2.859375 -3.273438 2.503906 -2.941406 C 2.148438 -2.609375 1.761719 -2.355469 1.34375 -2.179688 C 0.925781 -2.007812 0.496094 -1.921875 0.0429688 -1.933594 C -0.40625 -1.941406 -0.84375 -2.066406 -1.277344 -2.308594 C -1.953125 -2.6875 -2.464844 -3.164062 -2.8125 -3.746094 C -3.164062 -4.324219 -3.394531 -4.957031 -3.511719 -5.648438 C -3.625 -6.339844 -3.644531 -7.0625 -3.558594 -7.8125 C -3.476562 -8.5625 -3.335938 -9.296875 -3.144531 -10.015625 C -2.949219 -10.734375 -2.71875 -11.40625 -2.453125 -12.039062 C -2.1875 -12.671875 -1.929688 -13.214844 -1.671875 -13.675781 L -1.488281 -14 C -2.039062 -14.304688 -2.628906 -14.507812 -3.257812 -14.605469 C -3.886719 -14.707031 -4.503906 -14.695312 -5.101562 -14.574219 C -5.699219 -14.453125 -6.257812 -14.226562 -6.769531 -13.886719 C -7.285156 -13.546875 -7.703125 -13.089844 -8.023438 -12.515625 C -8.261719 -12.09375 -8.375 -11.613281 -8.363281 -11.074219 C -8.351562 -10.535156 -8.246094 -10.003906 -8.054688 -9.484375 C -7.863281 -8.964844 -7.589844 -8.476562 -7.238281 -8.027344 C -6.890625 -7.578125 -6.496094 -7.230469 -6.066406 -6.988281 C -5.886719 -6.890625 -5.777344 -6.730469 -5.738281 -6.515625 C -5.699219 -6.296875 -5.730469 -6.101562 -5.832031 -5.917969 C -5.941406 -5.722656 -6.113281 -5.59375 -6.339844 -5.53125 C -6.570312 -5.46875 -6.773438 -5.492188 -6.953125 -5.589844 C -7.386719 -5.832031 -7.796875 -6.160156 -8.183594 -6.578125 C -8.570312 -6.996094 -8.910156 -7.476562 -9.199219 -8.023438 C -9.488281 -8.570312 -9.722656 -9.167969 -9.890625 -9.8125 C -10.0625 -10.457031 -10.152344 -11.132812 -10.164062 -11.84375 C -10.175781 -12.550781 -10.09375 -13.277344 -9.914062 -14.015625 C -9.738281 -14.753906 -9.449219 -15.484375 -9.046875 -16.203125 C -8.480469 -17.210938 -7.84375 -17.984375 -7.128906 -18.523438 C -6.410156 -19.0625 -5.648438 -19.421875 -4.839844 -19.601562 C -4.03125 -19.78125 -3.195312 -19.8125 -2.328125 -19.695312 C -1.460938 -19.574219 -0.589844 -19.367188 0.28125 -19.066406 C 1.152344 -18.769531 2.011719 -18.410156 2.851562 -17.992188 C 3.695312 -17.574219 4.488281 -17.15625 5.234375 -16.738281 C 5.613281 -16.527344 5.933594 -16.34375 6.199219 -16.183594 C 6.464844 -16.023438 6.6875 -15.894531 6.867188 -15.792969 C 6.941406 -15.925781 7.015625 -16.066406 7.082031 -16.210938 C 7.152344 -16.355469 7.222656 -16.496094 7.300781 -16.628906 C 7.386719 -16.785156 7.480469 -16.941406 7.582031 -17.101562 C 7.683594 -17.261719 7.78125 -17.425781 7.871094 -17.585938 C 8 -17.773438 8.164062 -17.890625 8.367188 -17.9375 C 8.570312 -17.984375 8.769531 -17.953125 8.96875 -17.839844 C 9.15625 -17.734375 9.289062 -17.578125 9.359375 -17.367188 C 9.429688 -17.15625 9.410156 -16.949219 9.300781 -16.753906 Z M 9.300781 -16.753906 "/></g></g></g><g fill="#0d2380" fill-opacity="1"><g transform="translate(69.097668, 80.647232)"><g><path d="M 10.742188 -27.914062 C 10.859375 -27.769531 10.910156 -27.59375 10.90625 -27.394531 C 10.898438 -27.191406 10.832031 -27.023438 10.707031 -26.882812 C 10.210938 -26.296875 9.652344 -25.742188 9.03125 -25.214844 C 9.761719 -23.914062 10.390625 -22.746094 10.914062 -21.710938 C 11.441406 -20.671875 11.886719 -19.726562 12.253906 -18.867188 C 12.617188 -18.007812 12.921875 -17.214844 13.160156 -16.492188 C 13.402344 -15.769531 13.597656 -15.078125 13.75 -14.417969 C 13.898438 -13.757812 14.023438 -13.109375 14.113281 -12.472656 C 14.207031 -11.839844 14.292969 -11.171875 14.367188 -10.472656 C 14.375 -10.332031 14.355469 -10.199219 14.316406 -10.078125 C 14.273438 -9.953125 14.199219 -9.847656 14.085938 -9.757812 C 13.96875 -9.667969 13.851562 -9.613281 13.730469 -9.597656 C 13.605469 -9.578125 13.484375 -9.582031 13.359375 -9.601562 C 11.753906 -9.980469 10.355469 -10.386719 9.164062 -10.828125 C 7.972656 -11.269531 7.003906 -11.671875 6.261719 -12.03125 C 6.539062 -10.898438 6.785156 -9.785156 7.011719 -8.6875 C 7.234375 -7.59375 7.40625 -6.476562 7.527344 -5.339844 C 7.53125 -5.199219 7.507812 -5.066406 7.457031 -4.9375 C 7.40625 -4.8125 7.332031 -4.710938 7.234375 -4.636719 C 6.996094 -4.449219 6.746094 -4.398438 6.476562 -4.472656 C 5.226562 -4.828125 4.054688 -5.238281 2.957031 -5.703125 C 1.859375 -6.164062 0.839844 -6.648438 -0.09375 -7.160156 C -1.03125 -7.667969 -1.882812 -8.179688 -2.648438 -8.695312 C -3.410156 -9.210938 -4.09375 -9.703125 -4.695312 -10.175781 C -5.292969 -10.648438 -5.804688 -11.078125 -6.222656 -11.460938 C -6.644531 -11.847656 -6.972656 -12.167969 -7.214844 -12.421875 C -7.414062 -12.292969 -7.605469 -12.164062 -7.785156 -12.035156 C -7.964844 -11.90625 -8.152344 -11.78125 -8.34375 -11.65625 C -8.523438 -11.554688 -8.71875 -11.519531 -8.921875 -11.554688 C -9.128906 -11.589844 -9.292969 -11.691406 -9.421875 -11.851562 C -9.566406 -12.039062 -9.613281 -12.242188 -9.5625 -12.46875 C -9.507812 -12.695312 -9.410156 -12.863281 -9.261719 -12.976562 L -9.214844 -13.015625 C -8.8125 -13.292969 -8.40625 -13.574219 -7.988281 -13.871094 C -7.570312 -14.164062 -7.148438 -14.480469 -6.71875 -14.820312 C -6.042969 -15.347656 -5.386719 -15.898438 -4.75 -16.472656 C -4.113281 -17.042969 -3.53125 -17.597656 -3.003906 -18.128906 C -2.988281 -18.140625 -2.976562 -18.15625 -2.96875 -18.171875 C -2.964844 -18.191406 -2.945312 -18.210938 -2.914062 -18.238281 C -2.726562 -18.382812 -2.523438 -18.433594 -2.304688 -18.390625 C -2.085938 -18.34375 -1.914062 -18.242188 -1.785156 -18.078125 C -1.660156 -17.917969 -1.601562 -17.738281 -1.609375 -17.542969 C -1.617188 -17.34375 -1.699219 -17.171875 -1.847656 -17.03125 C -2.027344 -16.824219 -2.222656 -16.617188 -2.441406 -16.40625 C -2.65625 -16.199219 -2.871094 -15.988281 -3.085938 -15.78125 C -2.78125 -15.507812 -2.371094 -15.160156 -1.855469 -14.734375 C -1.335938 -14.308594 -0.730469 -13.851562 -0.0429688 -13.363281 C 0.648438 -12.878906 1.414062 -12.390625 2.257812 -11.898438 C 3.105469 -11.40625 4 -10.964844 4.953125 -10.570312 C 4.75 -11.394531 4.519531 -12.207031 4.261719 -13.007812 C 4 -13.804688 3.726562 -14.566406 3.441406 -15.292969 C 3.152344 -16.015625 2.851562 -16.695312 2.535156 -17.332031 C 2.21875 -17.96875 1.898438 -18.535156 1.578125 -19.03125 C 1.445312 -19.230469 1.410156 -19.429688 1.460938 -19.628906 C 1.515625 -19.828125 1.617188 -19.988281 1.773438 -20.105469 C 1.910156 -20.214844 2.066406 -20.273438 2.238281 -20.277344 C 2.414062 -20.28125 2.574219 -20.230469 2.722656 -20.125 C 4.136719 -19.175781 5.585938 -18.328125 7.070312 -17.582031 C 8.554688 -16.832031 10.117188 -16.171875 11.757812 -15.601562 C 11.601562 -16.117188 11.40625 -16.671875 11.179688 -17.265625 C 10.949219 -17.859375 10.671875 -18.503906 10.347656 -19.199219 C 10.023438 -19.898438 9.648438 -20.660156 9.21875 -21.488281 C 8.792969 -22.320312 8.304688 -23.230469 7.765625 -24.21875 C 7.214844 -23.789062 6.628906 -23.40625 6.007812 -23.078125 C 5.839844 -22.972656 5.660156 -22.9375 5.460938 -22.972656 C 5.261719 -23.007812 5.101562 -23.105469 4.972656 -23.269531 C 4.832031 -23.445312 4.78125 -23.652344 4.816406 -23.882812 C 4.851562 -24.113281 4.949219 -24.292969 5.113281 -24.417969 C 5.128906 -24.433594 5.144531 -24.4375 5.164062 -24.441406 C 5.183594 -24.441406 5.203125 -24.453125 5.230469 -24.472656 C 5.589844 -24.675781 5.949219 -24.898438 6.300781 -25.136719 C 6.652344 -25.371094 6.988281 -25.617188 7.3125 -25.871094 C 8.125 -26.507812 8.847656 -27.191406 9.476562 -27.925781 C 9.511719 -27.949219 9.53125 -27.972656 9.546875 -28 C 9.5625 -28.023438 9.574219 -28.039062 9.59375 -28.054688 C 9.761719 -28.1875 9.964844 -28.238281 10.199219 -28.207031 C 10.433594 -28.175781 10.617188 -28.078125 10.742188 -27.914062 Z M 10.742188 -27.914062 "/></g></g></g><g fill="#0d2380" fill-opacity="1"><g transform="translate(85.482121, 67.133789)"><g><path d="M 15.425781 -3.71875 C 14.824219 -3.566406 14.25 -3.523438 13.695312 -3.59375 C 13.140625 -3.660156 12.609375 -3.800781 12.101562 -4.019531 C 11.597656 -4.234375 11.113281 -4.519531 10.652344 -4.871094 C 10.1875 -5.222656 9.757812 -5.605469 9.359375 -6.027344 C 8.960938 -6.445312 8.59375 -6.886719 8.257812 -7.351562 C 7.921875 -7.8125 7.625 -8.273438 7.359375 -8.726562 C 7.226562 -8.660156 7.101562 -8.605469 6.980469 -8.558594 C 6.859375 -8.511719 6.742188 -8.464844 6.625 -8.414062 L 7.863281 -3.527344 C 8.132812 -3.5625 8.390625 -3.597656 8.644531 -3.628906 C 8.898438 -3.660156 9.140625 -3.691406 9.378906 -3.71875 C 9.578125 -3.738281 9.753906 -3.6875 9.914062 -3.566406 C 10.070312 -3.445312 10.171875 -3.296875 10.21875 -3.117188 C 10.28125 -2.867188 10.246094 -2.652344 10.109375 -2.46875 C 9.976562 -2.285156 9.824219 -2.171875 9.65625 -2.128906 L 9.535156 -2.097656 C 8.882812 -2.027344 8.199219 -1.945312 7.484375 -1.84375 C 6.773438 -1.742188 6.011719 -1.589844 5.203125 -1.382812 C 4.613281 -1.234375 4.007812 -1.054688 3.390625 -0.84375 C 2.773438 -0.632812 2.140625 -0.371094 1.484375 -0.0585938 L 1.335938 -0.0195312 C 1.105469 0.0390625 0.894531 0.00390625 0.703125 -0.121094 C 0.511719 -0.25 0.390625 -0.414062 0.339844 -0.613281 C 0.292969 -0.792969 0.3125 -0.96875 0.398438 -1.136719 C 0.480469 -1.308594 0.613281 -1.441406 0.789062 -1.539062 C 1.359375 -1.8125 1.941406 -2.054688 2.535156 -2.269531 L -2.074219 -20.453125 C -2.710938 -20.324219 -3.25 -20.226562 -3.691406 -20.164062 C -4.132812 -20.097656 -4.378906 -20.058594 -4.429688 -20.046875 C -4.636719 -20.027344 -4.820312 -20.074219 -4.984375 -20.195312 C -5.148438 -20.3125 -5.253906 -20.472656 -5.304688 -20.671875 C -5.367188 -20.921875 -5.328125 -21.136719 -5.183594 -21.316406 C -5.035156 -21.496094 -4.878906 -21.609375 -4.707031 -21.652344 L -4.617188 -21.675781 C -4.609375 -21.675781 -4.492188 -21.695312 -4.265625 -21.722656 C -4.039062 -21.753906 -3.742188 -21.796875 -3.378906 -21.851562 C -3.015625 -21.910156 -2.605469 -21.980469 -2.148438 -22.070312 C -1.695312 -22.160156 -1.226562 -22.261719 -0.746094 -22.386719 C -0.265625 -22.507812 0.199219 -22.644531 0.648438 -22.796875 C 1.101562 -22.945312 1.503906 -23.121094 1.855469 -23.316406 L 2.023438 -23.359375 C 2.25 -23.417969 2.460938 -23.386719 2.652344 -23.261719 C 2.84375 -23.140625 2.964844 -22.980469 3.015625 -22.78125 L 6.261719 -9.980469 C 7.761719 -10.6875 8.972656 -11.601562 9.898438 -12.710938 C 10.824219 -13.824219 11.445312 -15.230469 11.757812 -16.925781 L 11.414062 -16.835938 C 10.851562 -16.695312 10.394531 -16.597656 10.035156 -16.542969 C 9.675781 -16.492188 9.472656 -16.457031 9.421875 -16.445312 C 9.214844 -16.425781 9.03125 -16.472656 8.867188 -16.589844 C 8.703125 -16.710938 8.597656 -16.867188 8.546875 -17.066406 C 8.484375 -17.316406 8.523438 -17.53125 8.671875 -17.707031 C 8.820312 -17.882812 8.976562 -17.992188 9.148438 -18.035156 L 9.238281 -18.058594 C 9.257812 -18.0625 9.4375 -18.089844 9.773438 -18.144531 C 10.109375 -18.199219 10.523438 -18.289062 11.015625 -18.410156 C 11.292969 -18.484375 11.589844 -18.570312 11.90625 -18.667969 C 12.21875 -18.769531 12.535156 -18.886719 12.855469 -19.015625 C 13.171875 -19.144531 13.480469 -19.289062 13.773438 -19.453125 C 14.066406 -19.617188 14.339844 -19.804688 14.597656 -20.007812 C 14.671875 -20.089844 14.765625 -20.144531 14.875 -20.171875 C 15.105469 -20.230469 15.316406 -20.195312 15.515625 -20.070312 C 15.710938 -19.945312 15.835938 -19.78125 15.886719 -19.582031 C 15.925781 -19.421875 15.921875 -19.269531 15.875 -19.125 C 15.824219 -18.980469 15.734375 -18.859375 15.601562 -18.761719 C 15.292969 -18.503906 14.957031 -18.269531 14.597656 -18.058594 C 14.234375 -17.851562 13.855469 -17.664062 13.460938 -17.5 C 13.351562 -16.386719 13.125 -15.398438 12.785156 -14.539062 C 12.445312 -13.675781 12.046875 -12.925781 11.59375 -12.289062 C 12.082031 -11.539062 12.570312 -10.84375 13.066406 -10.195312 C 13.558594 -9.550781 14.03125 -9 14.484375 -8.539062 C 14.933594 -8.078125 15.351562 -7.730469 15.738281 -7.492188 C 16.121094 -7.253906 16.449219 -7.171875 16.71875 -7.238281 C 16.949219 -7.296875 17.101562 -7.429688 17.175781 -7.632812 C 17.253906 -7.839844 17.285156 -8.0625 17.269531 -8.304688 C 17.257812 -8.546875 17.21875 -8.785156 17.160156 -9.027344 C 17.097656 -9.265625 17.050781 -9.449219 17.019531 -9.582031 C 16.941406 -9.890625 16.851562 -10.1875 16.753906 -10.46875 C 16.65625 -10.753906 16.5625 -11 16.476562 -11.214844 C 16.390625 -11.425781 16.320312 -11.59375 16.261719 -11.71875 C 16.203125 -11.839844 16.167969 -11.902344 16.160156 -11.898438 L 16.109375 -12.09375 C 16.054688 -12.304688 16.085938 -12.507812 16.203125 -12.707031 C 16.316406 -12.90625 16.472656 -13.03125 16.671875 -13.082031 C 16.863281 -13.128906 17.042969 -13.117188 17.21875 -13.042969 C 17.390625 -12.972656 17.519531 -12.84375 17.609375 -12.664062 C 17.625 -12.636719 17.667969 -12.550781 17.738281 -12.402344 C 17.808594 -12.253906 17.890625 -12.066406 17.984375 -11.835938 C 18.082031 -11.605469 18.183594 -11.335938 18.292969 -11.027344 C 18.402344 -10.722656 18.503906 -10.394531 18.59375 -10.042969 C 18.777344 -9.3125 18.863281 -8.609375 18.855469 -7.933594 C 18.847656 -7.253906 18.71875 -6.636719 18.472656 -6.078125 C 18.226562 -5.523438 17.851562 -5.039062 17.355469 -4.632812 C 16.859375 -4.222656 16.214844 -3.921875 15.425781 -3.71875 Z M 15.425781 -3.71875 "/></g></g></g><g fill="#0d2380" fill-opacity="1"><g transform="translate(102.773908, 62.089049)"><g><path d="M 18.964844 2.027344 C 18.90625 2.226562 18.792969 2.378906 18.625 2.488281 C 18.453125 2.597656 18.265625 2.636719 18.0625 2.609375 L 18.03125 2.605469 C 15.304688 2.066406 12.632812 1.628906 10.015625 1.292969 C 7.355469 0.949219 4.785156 0.710938 2.296875 0.578125 L 2.21875 0.566406 C 1.988281 0.515625 1.800781 0.410156 1.667969 0.246094 C 1.53125 0.0820312 1.480469 -0.117188 1.511719 -0.351562 C 1.539062 -0.554688 1.632812 -0.722656 1.792969 -0.851562 C 1.957031 -0.980469 2.144531 -1.042969 2.363281 -1.035156 C 2.695312 -1.023438 3.027344 -1.003906 3.363281 -0.976562 C 3.695312 -0.949219 4.027344 -0.925781 4.359375 -0.902344 L 6.769531 -19.597656 C 6.445312 -19.664062 6.121094 -19.714844 5.800781 -19.753906 C 5.476562 -19.796875 5.152344 -19.839844 4.824219 -19.882812 C 4.613281 -19.929688 4.441406 -20.039062 4.308594 -20.207031 C 4.171875 -20.375 4.121094 -20.570312 4.148438 -20.796875 C 4.179688 -21.019531 4.285156 -21.203125 4.46875 -21.339844 C 4.652344 -21.476562 4.851562 -21.53125 5.066406 -21.503906 C 5.453125 -21.433594 5.828125 -21.375 6.191406 -21.328125 C 6.554688 -21.28125 6.914062 -21.234375 7.269531 -21.1875 C 9.449219 -20.90625 11.617188 -20.699219 13.769531 -20.566406 C 15.925781 -20.433594 18.085938 -20.375 20.25 -20.386719 L 20.386719 -20.367188 C 20.59375 -20.34375 20.757812 -20.25 20.882812 -20.09375 C 21.007812 -19.9375 21.074219 -19.765625 21.082031 -19.578125 L 21.070312 -14.308594 L 21.058594 -14.199219 C 21.027344 -13.964844 20.917969 -13.789062 20.730469 -13.667969 C 20.542969 -13.542969 20.347656 -13.496094 20.144531 -13.523438 C 19.949219 -13.546875 19.785156 -13.632812 19.65625 -13.78125 C 19.523438 -13.929688 19.449219 -14.105469 19.4375 -14.316406 L 19.449219 -18.757812 C 18.242188 -18.75 17.035156 -18.769531 15.832031 -18.828125 C 14.628906 -18.882812 13.417969 -18.960938 12.203125 -19.054688 L 10.898438 -8.945312 C 11.144531 -8.925781 11.476562 -8.898438 11.886719 -8.867188 C 12.300781 -8.835938 12.746094 -8.808594 13.226562 -8.789062 C 13.707031 -8.765625 14.199219 -8.753906 14.703125 -8.746094 C 15.203125 -8.738281 15.675781 -8.746094 16.117188 -8.773438 L 16.269531 -8.753906 C 16.484375 -8.726562 16.664062 -8.621094 16.804688 -8.441406 C 16.949219 -8.261719 17.007812 -8.070312 16.980469 -7.867188 C 16.957031 -7.660156 16.871094 -7.496094 16.730469 -7.367188 C 16.589844 -7.242188 16.417969 -7.164062 16.21875 -7.136719 C 15.734375 -7.105469 15.222656 -7.09375 14.675781 -7.101562 C 14.132812 -7.109375 13.605469 -7.128906 13.09375 -7.160156 C 12.582031 -7.1875 12.117188 -7.21875 11.695312 -7.253906 C 11.273438 -7.289062 10.9375 -7.316406 10.691406 -7.335938 L 9.792969 -0.359375 L 10.222656 -0.304688 C 11.4375 -0.144531 12.660156 0.0273438 13.886719 0.21875 C 15.117188 0.40625 16.347656 0.621094 17.585938 0.867188 L 18.667969 -3.171875 C 18.734375 -3.371094 18.851562 -3.527344 19.015625 -3.636719 C 19.179688 -3.742188 19.359375 -3.785156 19.554688 -3.761719 C 19.800781 -3.730469 19.984375 -3.617188 20.113281 -3.421875 C 20.238281 -3.230469 20.289062 -3.046875 20.265625 -2.875 L 20.25 -2.75 Z M 18.964844 2.027344 "/></g></g></g><g fill="#0d2380" fill-opacity="1"><g transform="translate(119.917666, 63.801596)"><g><path d="M 24.253906 -4.925781 C 24.15625 -4.742188 24.011719 -4.617188 23.816406 -4.542969 C 23.621094 -4.46875 23.429688 -4.472656 23.238281 -4.550781 C 23.046875 -4.613281 22.867188 -4.683594 22.691406 -4.757812 C 22.515625 -4.832031 22.328125 -4.90625 22.136719 -4.984375 C 21.941406 -4.761719 21.664062 -4.449219 21.308594 -4.046875 C 20.953125 -3.644531 20.542969 -3.1875 20.078125 -2.675781 C 19.613281 -2.160156 19.109375 -1.605469 18.570312 -1.003906 C 18.027344 -0.402344 17.472656 0.210938 16.90625 0.832031 C 16.335938 1.453125 15.765625 2.070312 15.191406 2.675781 C 14.617188 3.285156 14.074219 3.859375 13.554688 4.394531 C 13.035156 4.933594 12.554688 5.414062 12.117188 5.84375 C 11.679688 6.273438 11.304688 6.621094 10.988281 6.886719 C 10.148438 7.585938 9.246094 8.230469 8.28125 8.8125 C 7.320312 9.398438 6.328125 9.851562 5.308594 10.167969 C 4.289062 10.484375 3.257812 10.628906 2.214844 10.601562 C 1.167969 10.574219 0.148438 10.300781 -0.847656 9.78125 C -1.46875 9.457031 -2.023438 9.058594 -2.511719 8.589844 C -3 8.121094 -3.375 7.601562 -3.636719 7.035156 C -3.898438 6.464844 -4.035156 5.871094 -4.042969 5.242188 C -4.054688 4.613281 -3.890625 3.976562 -3.550781 3.328125 C -3.335938 2.917969 -3.066406 2.539062 -2.738281 2.191406 C -2.414062 1.84375 -2.054688 1.570312 -1.667969 1.371094 C -1.277344 1.171875 -0.867188 1.0625 -0.4375 1.035156 C -0.00390625 1.011719 0.429688 1.113281 0.867188 1.34375 C 1.207031 1.519531 1.492188 1.75 1.722656 2.03125 C 1.953125 2.316406 2.121094 2.625 2.222656 2.957031 C 2.328125 3.292969 2.367188 3.640625 2.339844 4.003906 C 2.3125 4.367188 2.210938 4.71875 2.035156 5.058594 C 1.859375 5.394531 1.628906 5.679688 1.347656 5.910156 C 1.0625 6.140625 0.753906 6.308594 0.417969 6.417969 C 0.0820312 6.527344 -0.269531 6.570312 -0.632812 6.542969 C -0.996094 6.515625 -1.347656 6.414062 -1.683594 6.238281 C -1.839844 6.15625 -1.980469 6.066406 -2.101562 5.96875 C -2.226562 5.867188 -2.339844 5.761719 -2.441406 5.648438 C -2.371094 6.023438 -2.238281 6.363281 -2.050781 6.667969 C -1.859375 6.96875 -1.601562 7.203125 -1.28125 7.371094 C -0.878906 7.582031 -0.433594 7.660156 0.0585938 7.609375 C 0.550781 7.558594 1.058594 7.425781 1.582031 7.210938 C 2.109375 6.996094 2.632812 6.722656 3.152344 6.390625 C 3.675781 6.058594 4.171875 5.714844 4.644531 5.355469 C 5.117188 4.996094 5.546875 4.648438 5.929688 4.316406 C 6.3125 3.980469 6.625 3.703125 6.871094 3.480469 C 7.046875 3.316406 7.230469 3.140625 7.414062 2.953125 C 7.601562 2.765625 7.800781 2.570312 8.011719 2.367188 C 7.71875 0.46875 7.582031 -1.230469 7.601562 -2.730469 C 7.617188 -4.234375 7.710938 -5.554688 7.875 -6.6875 C 8.042969 -7.820312 8.253906 -8.773438 8.511719 -9.539062 C 8.765625 -10.308594 8.992188 -10.902344 9.1875 -11.324219 C 8.839844 -11.503906 8.496094 -11.691406 8.148438 -11.890625 C 7.804688 -12.089844 7.472656 -12.300781 7.148438 -12.527344 C 6.976562 -12.640625 6.859375 -12.796875 6.808594 -12.992188 C 6.753906 -13.191406 6.773438 -13.378906 6.867188 -13.5625 C 6.972656 -13.761719 7.136719 -13.894531 7.363281 -13.957031 C 7.585938 -14.023438 7.792969 -14.003906 7.972656 -13.910156 L 8.054688 -13.867188 C 8.351562 -13.65625 8.664062 -13.453125 8.988281 -13.265625 C 9.316406 -13.078125 9.652344 -12.894531 10 -12.710938 C 10.53125 -12.4375 11.078125 -12.175781 11.644531 -11.933594 C 12.210938 -11.691406 12.800781 -11.46875 13.414062 -11.261719 C 13.460938 -11.261719 13.5 -11.253906 13.539062 -11.234375 C 13.746094 -11.125 13.882812 -10.953125 13.945312 -10.726562 C 14.003906 -10.496094 13.988281 -10.289062 13.890625 -10.105469 C 13.804688 -9.941406 13.667969 -9.820312 13.484375 -9.742188 C 13.296875 -9.667969 13.105469 -9.660156 12.910156 -9.730469 C 12.507812 -9.871094 12.117188 -10.011719 11.746094 -10.15625 C 11.371094 -10.296875 11.003906 -10.445312 10.640625 -10.597656 C 10.480469 -10.265625 10.292969 -9.777344 10.078125 -9.132812 C 9.863281 -8.488281 9.679688 -7.6875 9.523438 -6.734375 C 9.367188 -5.78125 9.269531 -4.667969 9.230469 -3.398438 C 9.191406 -2.128906 9.265625 -0.695312 9.453125 0.902344 C 10.167969 0.160156 10.90625 -0.625 11.667969 -1.453125 C 12.433594 -2.28125 13.164062 -3.082031 13.867188 -3.859375 C 14.566406 -4.632812 15.207031 -5.34375 15.785156 -5.996094 C 16.363281 -6.648438 16.828125 -7.175781 17.175781 -7.574219 C 17 -7.6875 16.820312 -7.800781 16.628906 -7.917969 C 16.441406 -8.035156 16.257812 -8.15625 16.082031 -8.285156 C 15.90625 -8.398438 15.792969 -8.554688 15.742188 -8.757812 C 15.691406 -8.957031 15.710938 -9.152344 15.808594 -9.332031 C 15.921875 -9.554688 16.09375 -9.6875 16.316406 -9.738281 C 16.539062 -9.792969 16.738281 -9.773438 16.914062 -9.679688 L 16.996094 -9.636719 C 17.523438 -9.269531 18.0625 -8.925781 18.609375 -8.605469 C 19.15625 -8.28125 19.71875 -7.972656 20.296875 -7.671875 C 20.863281 -7.375 21.4375 -7.09375 22.023438 -6.820312 C 22.609375 -6.550781 23.210938 -6.300781 23.824219 -6.074219 L 23.90625 -6.03125 C 24.117188 -5.921875 24.25 -5.757812 24.308594 -5.535156 C 24.367188 -5.3125 24.347656 -5.109375 24.253906 -4.925781 Z M 24.253906 -4.925781 "/></g></g></g><g fill="#0d2380" fill-opacity="1"><g transform="translate(134.067098, 70.685544)"><g><path d="M 16.289062 5.179688 L 16.476562 5 C 17.035156 4.464844 17.496094 3.90625 17.859375 3.332031 C 18.21875 2.753906 18.460938 2.164062 18.582031 1.550781 C 18.707031 0.941406 18.691406 0.324219 18.546875 -0.308594 C 18.398438 -0.9375 18.09375 -1.574219 17.632812 -2.21875 C 17.210938 -2.570312 16.773438 -2.808594 16.324219 -2.933594 C 15.875 -3.058594 15.425781 -3.105469 14.980469 -3.070312 C 14.535156 -3.035156 14.09375 -2.9375 13.652344 -2.769531 C 13.210938 -2.605469 12.789062 -2.402344 12.382812 -2.164062 C 11.976562 -1.921875 11.589844 -1.664062 11.222656 -1.382812 C 10.855469 -1.101562 10.523438 -0.828125 10.226562 -0.554688 C 10.304688 -0.402344 10.40625 -0.210938 10.539062 0.015625 C 10.667969 0.238281 10.824219 0.488281 11.003906 0.757812 C 11.183594 1.027344 11.390625 1.308594 11.625 1.605469 C 11.859375 1.902344 12.121094 2.199219 12.40625 2.496094 C 13.011719 3.128906 13.640625 3.664062 14.292969 4.105469 C 14.945312 4.546875 15.609375 4.902344 16.289062 5.179688 Z M 16.945312 6.734375 C 16.730469 6.898438 16.464844 6.957031 16.144531 6.90625 C 15.824219 6.855469 15.472656 6.742188 15.09375 6.5625 C 14.714844 6.382812 14.328125 6.15625 13.933594 5.886719 C 13.539062 5.617188 13.160156 5.339844 12.800781 5.054688 C 12.441406 4.769531 12.121094 4.5 11.839844 4.242188 C 11.558594 3.984375 11.339844 3.777344 11.191406 3.621094 C 10.667969 3.078125 10.226562 2.542969 9.863281 2.011719 C 9.496094 1.484375 9.214844 1.03125 9.007812 0.65625 C 8.589844 1.144531 8.21875 1.664062 7.894531 2.21875 C 7.570312 2.773438 7.34375 3.339844 7.21875 3.917969 C 7.09375 4.492188 7.09375 5.066406 7.21875 5.632812 C 7.339844 6.199219 7.644531 6.738281 8.128906 7.242188 C 8.308594 7.429688 8.535156 7.617188 8.8125 7.808594 C 9.089844 8 9.386719 8.167969 9.699219 8.308594 C 10.015625 8.449219 10.328125 8.554688 10.644531 8.625 C 10.960938 8.691406 11.253906 8.703125 11.523438 8.660156 C 11.792969 8.640625 12.015625 8.722656 12.1875 8.902344 C 12.335938 9.058594 12.40625 9.253906 12.398438 9.492188 C 12.390625 9.726562 12.3125 9.917969 12.164062 10.0625 C 12.007812 10.210938 11.835938 10.28125 11.65625 10.269531 C 11.210938 10.355469 10.734375 10.332031 10.234375 10.195312 C 9.734375 10.0625 9.246094 9.867188 8.765625 9.613281 C 8.285156 9.359375 7.835938 9.070312 7.417969 8.742188 C 6.996094 8.417969 6.636719 8.097656 6.335938 7.785156 C 5.480469 6.894531 4.84375 5.914062 4.421875 4.84375 C 4.003906 3.773438 3.796875 2.691406 3.804688 1.597656 C 3.8125 0.503906 4.035156 -0.558594 4.46875 -1.597656 C 4.902344 -2.636719 5.550781 -3.566406 6.414062 -4.394531 C 7.355469 -5.300781 8.335938 -5.96875 9.347656 -6.398438 C 10.359375 -6.824219 11.367188 -7.023438 12.378906 -6.992188 C 13.386719 -6.960938 14.378906 -6.699219 15.359375 -6.207031 C 16.335938 -5.71875 17.269531 -5.007812 18.164062 -4.078125 C 18.96875 -3.164062 19.546875 -2.265625 19.894531 -1.378906 C 20.246094 -0.492188 20.386719 0.375 20.316406 1.226562 C 20.25 2.078125 19.984375 2.914062 19.523438 3.738281 C 19.0625 4.558594 18.425781 5.359375 17.613281 6.136719 C 17.429688 6.316406 17.277344 6.453125 17.164062 6.550781 C 17.046875 6.644531 16.976562 6.707031 16.945312 6.734375 Z M 16.945312 6.734375 "/></g></g></g></svg>